<svg width="22" height="22" viewBox="0 0 22 22" fill="none" xmlns="http://www.w3.org/2000/svg">
<path d="M15.4461 0H6.55392C2.94007 0 0 2.94007 0 6.55392V15.4461C0 19.0599 2.94007 22 6.55392 22H15.4461C19.0599 22 22 19.0599 22 15.4461V6.55392C22 2.94007 19.0599 0 15.4461 0ZM19.7868 15.4461C19.7868 17.8434 17.8434 19.7868 15.4461 19.7868H6.55392C4.15663 19.7868 2.2132 17.8434 2.2132 15.4461V6.55392C2.2132 4.15659 4.15663 2.2132 6.55392 2.2132H15.4461C17.8434 2.2132 19.7868 4.15659 19.7868 6.55392V15.4461Z" fill="white"/>
<path d="M5.81 11C5.81 8.13872 8.13866 5.81006 11 5.81006C13.8613 5.81006 16.19 8.13869 16.19 11C16.19 13.8613 13.8613 16.19 11 16.19C8.13866 16.19 5.81 13.8613 5.81 11ZM7.0232 11C7.0232 13.1964 8.80365 14.9768 11 14.9768C13.1963 14.9768 14.9768 13.1963 14.9768 11C14.9768 8.80371 13.1963 7.02326 11 7.02326C8.80369 7.02326 7.0232 8.8037 7.0232 11Z" fill="white" stroke="white"/>
<path d="M16.701 6.71613C17.454 6.71613 18.0644 6.1057 18.0644 5.35269C18.0644 4.59969 17.454 3.98926 16.701 3.98926C15.948 3.98926 15.3375 4.59969 15.3375 5.35269C15.3375 6.1057 15.948 6.71613 16.701 6.71613Z" fill="white"/>
</svg>
