<svg width="22" height="22" viewBox="0 0 22 22" fill="none" xmlns="http://www.w3.org/2000/svg">
<path d="M19.0354 0H2.96467C1.32743 0 0.00012207 1.32725 0.00012207 2.96454V19.0353C0.00012207 20.6726 1.32737 21.9999 2.96467 21.9999H10.8907L10.9042 14.1383H8.86173C8.5963 14.1383 8.38087 13.9237 8.37985 13.6583L8.37006 11.1242C8.36903 10.8573 8.58511 10.6404 8.85199 10.6404H10.8907V8.1918C10.8907 5.35023 12.6262 3.80297 15.161 3.80297H17.2411C17.5072 3.80297 17.723 4.01872 17.723 4.28491V6.42168C17.723 6.68775 17.5074 6.90346 17.2414 6.90362L15.9649 6.90421C14.5863 6.90421 14.3194 7.55928 14.3194 8.52062V10.6404H17.3485C17.6371 10.6404 17.8611 10.8925 17.8271 11.1791L17.5267 13.7132C17.498 13.9557 17.2923 14.1384 17.0481 14.1384H14.3329L14.3194 22H19.0355C20.6727 22 22 20.6728 22 19.0355V2.96454C21.9999 1.32725 20.6727 0 19.0354 0Z" fill="white"/>
</svg>
