<svg width="39" height="32" viewBox="0 0 39 32" fill="none" xmlns="http://www.w3.org/2000/svg">
<path d="M0.384515 30.86C1.03252 31.076 1.68052 31.184 2.32852 31.184C2.95252 31.184 3.61252 31.052 4.30852 30.788C5.00452 30.524 5.64052 30.104 6.21652 29.528C6.79252 28.976 7.26052 28.136 7.62052 27.008C8.00452 25.88 8.19652 24.548 8.19652 23.012V3.428C8.17252 2.804 7.93252 2.276 7.47652 1.844C7.04452 1.388 6.51652 1.16 5.89252 1.16H5.42452V0.799998H13.3085V1.16H12.8405C12.2165 1.16 11.6765 1.376 11.2205 1.808C10.7885 2.24 10.5605 2.78 10.5365 3.428V23.12C10.5365 24.752 10.2845 26.18 9.78052 27.404C9.27652 28.628 8.64052 29.552 7.87252 30.176C6.43252 31.304 4.83652 31.868 3.08452 31.868C2.05252 31.868 1.10452 31.664 0.240515 31.256L0.384515 30.86ZM14.4296 7.964C13.6856 7.076 13.3136 6.2 13.3136 5.336C13.3136 4.448 13.5176 3.692 13.9256 3.068C14.3336 2.42 14.9936 1.88 15.9056 1.448C16.8176 0.991999 17.8496 0.763999 19.0016 0.763999H33.7616C34.5056 0.763999 35.3216 0.691999 36.2096 0.547999C37.1216 0.403998 37.7576 0.259998 38.1176 0.115999V4.652L37.7576 4.616V4.004C37.7576 3.428 37.5536 2.936 37.1456 2.528C36.7376 2.096 36.2576 1.868 35.7056 1.844H28.8656V23.408C28.8896 24.272 29.2736 24.92 30.0176 25.352C30.3776 25.544 30.7616 25.64 31.1696 25.64H31.6376V26H23.7536V25.64H24.2216C24.8456 25.64 25.3736 25.424 25.8056 24.992C26.2616 24.56 26.5016 24.044 26.5256 23.444V1.844H19.0016C17.0816 1.844 15.6896 2.456 14.8256 3.68C14.3696 4.304 14.1416 4.964 14.1416 5.66C14.1416 6.332 14.3336 7.04 14.7176 7.784L14.4296 7.964Z" fill="white"/>
</svg>
