<svg width="21" height="16" viewBox="0 0 21 16" fill="none" xmlns="http://www.w3.org/2000/svg">
<path d="M20.666 1.8613C20.1994 2.05081 19.7151 2.20031 19.2181 2.30855C19.7657 1.83189 20.1775 1.23569 20.4098 0.570221C20.4761 0.380241 20.2508 0.215961 20.0635 0.31768C19.3721 0.693326 18.6273 0.97513 17.8498 1.15536C17.8047 1.16581 17.7582 1.17111 17.7115 1.17111C17.5699 1.17111 17.4322 1.12295 17.3239 1.03553C16.4967 0.367766 15.4328 0 14.3283 0C13.8503 0 13.3678 0.0682352 12.894 0.20283C11.426 0.619885 10.2933 1.72905 9.93788 3.0975C9.80456 3.61079 9.76846 4.12455 9.83052 4.62447C9.83763 4.68192 9.80799 4.72201 9.78971 4.74082C9.75761 4.77379 9.71209 4.79269 9.66483 4.79269C9.65956 4.79269 9.65413 4.79245 9.64876 4.79199C6.43533 4.51853 3.53761 3.1005 1.48934 0.799172C1.3849 0.681789 1.1846 0.696186 1.10135 0.826982C0.700247 1.45728 0.488278 2.17818 0.488278 2.91174C0.488278 4.03596 0.981387 5.09541 1.83791 5.86776C1.47772 5.78953 1.1291 5.66633 0.805258 5.50158C0.648586 5.42186 0.455817 5.52433 0.453616 5.68847C0.43119 7.35857 1.49871 8.84464 3.0979 9.51381C3.06569 9.51452 3.03349 9.51484 3.00123 9.51484C2.74774 9.51484 2.49108 9.49243 2.23845 9.4482C2.06202 9.41735 1.91379 9.57065 1.96858 9.72733C2.48764 11.2117 3.88295 12.3058 5.55269 12.5542C4.16691 13.4063 2.55313 13.8557 0.873508 13.8557L0.349884 13.8554C0.188552 13.8554 0.0521038 13.9518 0.0109901 14.0949C-0.0295092 14.2359 0.0450894 14.3846 0.182664 14.4579C2.07533 15.4668 4.23418 16 6.42678 16C8.34602 16 10.1413 15.6511 11.7628 14.9632C13.2493 14.3324 14.5629 13.4308 15.6671 12.2834C16.6957 11.2145 17.5 9.98063 18.0577 8.61602C18.5893 7.31523 18.8703 5.92727 18.8703 4.60215V4.53902C18.8703 4.32625 18.9753 4.12605 19.1586 3.98976C19.8542 3.47249 20.4599 2.86358 20.9588 2.17996C21.0906 1.99945 20.8828 1.77322 20.666 1.8613Z" fill="white"/>
</svg>
